<?xml version="1.0" encoding="UTF-8"?>
<svg version="1.1" xmlns="http://www.w3.org/2000/svg" width="1144" height="312">
<path d="M0 0 C377.52 0 755.04 0 1144 0 C1144 102.96 1144 205.92 1144 312 C766.48 312 388.96 312 0 312 C0 209.04 0 106.08 0 0 Z " fill="#FDFDFD" transform="translate(0,0)"/>
<path d="M0 0 C16.28942175 13.87617409 28.8412929 33.40723078 30.66015625 55.16040039 C30.77524994 58.71615039 30.78481876 62.25518356 30.75 65.8125 C30.76160156 67.00166016 30.77320313 68.19082031 30.78515625 69.41601562 C30.71660548 90.22117558 21.14938677 109.92547692 6.67578125 124.63671875 C-2.52090296 133.54763805 -12.71531131 139.24774221 -24.625 143.75 C-25.85283203 144.27207031 -25.85283203 144.27207031 -27.10546875 144.8046875 C-46.83268353 152.20621615 -69.96333781 149.94376776 -88.96484375 141.53515625 C-109.71533799 131.73677177 -126.06608369 115.09016509 -134.625 93.75 C-136.30662439 88.83395637 -137.53029734 83.8276886 -138.625 78.75 C-138.91117188 77.6053125 -138.91117188 77.6053125 -139.203125 76.4375 C-142.74217812 53.89242089 -136.55741164 33.2568045 -123.6875 14.8125 C-111.37085364 -1.14911133 -95.23157099 -12.32527259 -75.625 -17.25 C-74.85542969 -17.45625 -74.08585938 -17.6625 -73.29296875 -17.875 C-47.70880665 -23.67676274 -20.3925158 -16.10980386 0 0 Z " fill="#020202" transform="translate(725.625,92.25)"/>
<path d="M0 0 C16.32160734 12.88761762 28.6121141 31.77942435 31.70703125 52.5625 C31.91760458 56.62355699 31.89213241 60.68396143 31.89453125 64.75 C31.90677734 65.82314453 31.91902344 66.89628906 31.93164062 68.00195312 C31.9721086 90.29980968 23.23335552 108.7448628 7.75 124.671875 C-9.6921108 141.74263395 -31.70989643 147.875 -55.60327148 147.875 C-76.88191099 147.60363991 -94.32747188 139.23461058 -110.29296875 125.5625 C-111.040625 124.92828125 -111.78828125 124.2940625 -112.55859375 123.640625 C-120.93599285 115.92286363 -126.59808508 105.66424867 -131.23046875 95.375 C-131.512854 94.75882812 -131.79523926 94.14265625 -132.08618164 93.5078125 C-136.1853341 83.92009213 -136.63581693 73.92517173 -136.60546875 63.625 C-136.62158203 62.53509766 -136.63769531 61.44519531 -136.65429688 60.32226562 C-136.66064636 49.63607882 -134.58247303 39.97677847 -129.60546875 30.5 C-129.2609668 29.82735107 -128.91646484 29.15470215 -128.56152344 28.46166992 C-125.37361891 22.4016166 -121.56064164 16.91502251 -117.29296875 11.5625 C-116.66003906 10.72847656 -116.02710938 9.89445312 -115.375 9.03515625 C-86.10129604 -25.73079986 -34.55532006 -26.14229206 0 0 Z " fill="#5A2FE9" transform="translate(308.29296875,90.4375)"/>
<path d="M0 0 C5.49925421 -0.04940929 10.99837942 -0.08572395 16.49780273 -0.10986328 C18.36891938 -0.11992567 20.24002028 -0.13357691 22.11108398 -0.15087891 C24.79935591 -0.17511684 27.48742006 -0.18648063 30.17578125 -0.1953125 C31.01337479 -0.20563507 31.85096832 -0.21595764 32.71394348 -0.22659302 C38.65838488 -0.22774341 38.65838488 -0.22774341 42 2 C43.16451454 4.41206273 44.17970767 6.76338827 45.14453125 9.25390625 C45.58293587 10.35447609 45.58293587 10.35447609 46.03019714 11.47727966 C46.65063409 13.0399805 47.26650313 14.6045014 47.87817383 16.1706543 C48.7900612 18.50505737 49.71484723 20.83396434 50.64257812 23.16210938 C53.63426986 30.71140233 56.48448259 38.28957934 59.13671875 45.96484375 C61.04137598 51.46984746 63.1636634 56.74370618 65.65576172 62.01464844 C68.76493667 68.91965957 71.35207927 76.05626859 74.0625 83.125 C75.27977292 86.29534813 76.49967346 89.46466258 77.72265625 92.6328125 C78.15476913 93.75468964 78.15476913 93.75468964 78.59561157 94.89923096 C80.10652872 98.79511246 81.68796329 102.63123248 83.43359375 106.4296875 C85 110 85 110 85 113 C85.66 113 86.32 113 87 113 C87.11883545 111.97406738 87.2376709 110.94813477 87.36010742 109.89111328 C87.96534752 106.21071776 88.88040166 103.20338675 90.23828125 99.7421875 C90.47100235 99.1416153 90.70372345 98.54104309 90.9434967 97.92227173 C91.45539088 96.60327538 91.97059805 95.28556111 92.4887085 93.96899414 C93.95448874 90.24312998 95.39489241 86.50741691 96.83984375 82.7734375 C97.16007507 81.94797424 97.4803064 81.12251099 97.8102417 80.27203369 C102.85693239 67.24181569 107.74462843 54.15068979 112.66445923 41.07220459 C113.90831583 37.76658352 115.15334088 34.46140416 116.3984375 31.15625 C116.75857437 30.19764069 117.11871124 29.23903137 117.48976135 28.25137329 C120.92309013 19.13870207 124.46972648 10.0778462 128 1 C141.2 1 154.4 1 168 1 C166.87511483 8.87419617 166.87511483 8.87419617 165.56396484 12.12304688 C165.27147354 12.85916702 164.97898224 13.59528717 164.67762756 14.35371399 C164.19911598 15.52440681 164.19911598 15.52440681 163.7109375 16.71875 C163.37625961 17.55605148 163.04158173 18.39335297 162.69676208 19.25602722 C161.97436212 21.06135934 161.24855407 22.86533072 160.51968384 24.6680603 C158.55070193 29.53930757 156.6074805 34.42084573 154.66015625 39.30078125 C154.06417885 40.79119682 154.06417885 40.79119682 153.4561615 42.3117218 C150.12774167 50.64580919 146.88897719 59.01192851 143.68771362 67.39553833 C134.8755724 90.47229284 125.83404612 113.45899008 116.76748657 136.43676758 C114.53000163 142.1090113 112.30062957 147.78416075 110.09065247 153.46717834 C90.0629373 204.95502856 90.0629373 204.95502856 64.6015625 216.5234375 C51.42861025 221.92406218 36.96358077 222.40751393 23 220 C21 218 21 218 20.77294922 214.83544922 C20.77326611 213.49182037 20.78457819 212.1481659 20.8046875 210.8046875 C20.8075174 210.09724396 20.81034729 209.38980042 20.81326294 208.66091919 C20.82446863 206.3987749 20.84957321 204.13702485 20.875 201.875 C20.88502933 200.34245363 20.89415526 198.80990106 20.90234375 197.27734375 C20.92440914 193.51807699 20.95894104 189.75910536 21 186 C21.59425781 185.98018066 22.18851563 185.96036133 22.80078125 185.93994141 C25.53424419 185.84376007 28.26703803 185.73446443 31 185.625 C32.40185547 185.57859375 32.40185547 185.57859375 33.83203125 185.53125 C42.37164059 185.17294471 49.58771347 184.46730874 56.03125 178.39453125 C60.00094798 173.56630732 62.99813267 167.91059811 65 162 C64.56847861 157.59429972 63.3106369 153.92148954 61.5859375 149.86328125 C61.0798999 148.66421143 60.5738623 147.4651416 60.05249023 146.22973633 C59.49349735 144.92391787 58.93432871 143.61817464 58.375 142.3125 C57.79254878 140.9399099 57.21060984 139.56710233 56.62915039 138.1940918 C55.07919854 134.53985219 53.52049787 130.88941589 51.9586792 127.24023438 C51.00799713 125.01868762 50.05873392 122.79653973 49.10986328 120.57421875 C45.03627861 111.03612229 40.94585822 101.50530139 36.84973145 91.97686768 C29.05097082 73.83334965 21.29757078 55.67074592 13.5625 37.5 C13.12539703 36.4735437 12.68829407 35.4470874 12.23794556 34.38952637 C10.18699993 29.57270621 8.13881746 24.75477555 6.09814453 19.93359375 C4.83768939 16.95828808 3.56227105 13.99120342 2.25732422 11.03515625 C1.78955566 9.96136719 1.32178711 8.88757813 0.83984375 7.78125 C0.45046631 6.90533203 0.06108887 6.02941406 -0.34008789 5.12695312 C-1 3 -1 3 0 0 Z " fill="#020202" transform="translate(902,79)"/>
<path d="M0 0 C-0.64009017 3.96473763 -1.8698277 7.2944414 -3.50390625 10.95703125 C-3.99697266 12.06884766 -4.49003906 13.18066406 -4.99804688 14.32617188 C-5.77245117 16.0519043 -5.77245117 16.0519043 -6.5625 17.8125 C-7.08263672 18.98232422 -7.60277344 20.15214844 -8.13867188 21.35742188 C-9.42127112 24.24032843 -10.70852283 27.12106231 -12 30 C-16.51107131 29.19452058 -20.36087411 27.59932035 -24.5 25.6875 C-37.11669742 20.013908 -48.90359876 16.82484541 -62.75 16.75 C-63.6884375 16.729375 -64.626875 16.70875 -65.59375 16.6875 C-74.41777171 16.6387485 -83.11585338 18.0993029 -90 24 C-94.11718296 29.20065216 -94.64233647 33.54510579 -94.37109375 40.12890625 C-93.72751175 45.10819855 -92.36718233 48.12033806 -88.29296875 51.35546875 C-77.69982046 57.93820908 -64.35951383 60.20064551 -52.375 63 C-31.6612781 67.86295403 -12.59143296 74.2558203 0.45703125 91.984375 C6.83176309 104.44334457 7.6200843 122.19149777 3.93359375 135.60546875 C1.25064467 143.45282968 -3.2979882 150.04770906 -9 156 C-9.88945312 156.94939453 -9.88945312 156.94939453 -10.796875 157.91796875 C-18.60557787 165.47639269 -29.64440575 170.11151652 -40 173 C-41.24265625 173.34675781 -42.4853125 173.69351563 -43.765625 174.05078125 C-50.72940656 175.56638172 -57.84535223 175.39463018 -64.9375 175.375 C-66.04023758 175.37418427 -66.04023758 175.37418427 -67.16525269 175.37335205 C-78.53738888 175.3346318 -89.14963496 174.59643813 -100 171 C-100.97598145 170.69449219 -100.97598145 170.69449219 -101.97167969 170.3828125 C-110.47915246 167.67645886 -118.47834172 163.96071242 -126.4375 159.9375 C-127.27337646 159.52612793 -128.10925293 159.11475586 -128.97045898 158.69091797 C-130.12783569 158.08401123 -130.12783569 158.08401123 -131.30859375 157.46484375 C-131.99751709 157.110271 -132.68644043 156.75569824 -133.39624023 156.39038086 C-135 155 -135 155 -135.87060547 152.69799805 C-136.03275146 149.31710117 -135.20387215 147.42167199 -133.76171875 144.3671875 C-133.27123047 143.31402344 -132.78074219 142.26085937 -132.27539062 141.17578125 C-131.48938477 139.54189453 -131.48938477 139.54189453 -130.6875 137.875 C-130.17509766 136.77800781 -129.66269531 135.68101562 -129.13476562 134.55078125 C-125.37793274 126.56689911 -125.37793274 126.56689911 -123 123 C-119.62473218 124.25687421 -116.75549369 125.71446907 -113.75 127.6875 C-95.18248379 138.96063484 -72.67870236 144.73326055 -51.1875 139.6875 C-43.75406117 137.46160954 -37.82618447 134.71030746 -33.6875 127.8125 C-32.28944792 122.09319606 -32.02420055 116.95159891 -34.6875 111.625 C-44.35240214 100.65403 -60.40864451 98.1179628 -74.1328125 95.07421875 C-93.30037112 90.81377609 -114.33014405 85.23634898 -126 68 C-133.97539691 53.85340908 -135.23023574 37.72529456 -131.10546875 22.09765625 C-125.69630735 6.94053615 -115.17574096 -3.07969658 -101.375 -10.6875 C-68.8038613 -25.77413173 -30.11714744 -16.16401551 0 0 Z " fill="#5A2FE9" transform="translate(152,61)"/>
<path d="M0 0 C-0.14039552 3.97937771 -0.28831319 7.95844294 -0.4375 11.9375 C-0.47681641 13.05447266 -0.51613281 14.17144531 -0.55664062 15.32226562 C-0.79580904 21.59583708 -1.21391779 27.77079389 -2 34 C-3.58367747 33.85795259 -5.16693318 33.71119847 -6.75 33.5625 C-7.63171875 33.48128906 -8.5134375 33.40007813 -9.421875 33.31640625 C-12 33 -12 33 -13.89892578 32.49511719 C-22.64953462 30.43304018 -34.92089446 30.59053371 -42.98828125 34.6171875 C-48.82864148 38.63172638 -52.76101172 43.68956635 -54.45288086 50.61572266 C-55.19211267 55.18833819 -55.37495511 59.73577978 -55.5703125 64.359375 C-55.63424194 65.7513208 -55.63424194 65.7513208 -55.69946289 67.17138672 C-55.80345282 69.44744794 -55.9035212 71.7236101 -56 74 C-55.10130943 73.99666908 -55.10130943 73.99666908 -54.1844635 73.99327087 C-47.97202142 73.97121835 -41.75959038 73.95609354 -35.54711914 73.94506836 C-33.22582549 73.94002667 -30.90453503 73.93319349 -28.58325195 73.92456055 C-25.25471205 73.91248775 -21.92621398 73.90677021 -18.59765625 73.90234375 C-17.55287613 73.89718246 -16.50809601 73.89202118 -15.43165588 73.88670349 C-14.47073532 73.88662796 -13.50981476 73.88655243 -12.51977539 73.88647461 C-11.66928116 73.884254 -10.81878693 73.88203339 -9.94252014 73.87974548 C-8 74 -8 74 -7 75 C-6.91209025 77.29151417 -6.89305962 79.58572524 -6.90234375 81.87890625 C-6.90484131 83.13517822 -6.90733887 84.3914502 -6.90991211 85.68579102 C-6.91901611 87.29510498 -6.92812012 88.90441895 -6.9375 90.5625 C-6.958125 95.656875 -6.97875 100.75125 -7 106 C-23.17 106 -39.34 106 -56 106 C-55.99476318 109.87226318 -55.98952637 113.74452637 -55.98413086 117.73413086 C-55.96759848 130.49460824 -55.95647936 143.25508545 -55.94818783 156.01557064 C-55.94302483 163.75607282 -55.93598207 171.49656487 -55.92456055 179.23706055 C-55.91461381 185.98127151 -55.9081466 192.72547515 -55.90591151 199.46969324 C-55.90460438 203.04286866 -55.90151842 206.6160231 -55.89426994 210.18919182 C-55.88625628 214.17162351 -55.88600886 218.15403441 -55.88647461 222.13647461 C-55.88287933 223.32977386 -55.87928406 224.52307312 -55.87557983 225.75253296 C-55.8769545 226.83091934 -55.87832916 227.90930573 -55.87974548 229.02037048 C-55.87882369 229.96336471 -55.8779019 230.90635893 -55.87695217 231.87792873 C-56 234 -56 234 -57 235 C-69.54 235 -82.08 235 -95 235 C-95 192.43 -95 149.86 -95 106 C-105.23 106 -115.46 106 -126 106 C-127 105 -127 105 -127.11352539 102.04077148 C-127.10828857 100.74727783 -127.10305176 99.45378418 -127.09765625 98.12109375 C-127.09515869 96.86482178 -127.09266113 95.6085498 -127.09008789 94.31420898 C-127.08098389 92.70489502 -127.07187988 91.09558105 -127.0625 89.4375 C-127.041875 84.343125 -127.02125 79.24875 -127 74 C-116.44 74 -105.88 74 -95 74 C-95.061875 69.854375 -95.12375 65.70875 -95.1875 61.4375 C-95.27301208 43.09844872 -93.18697676 26.81017982 -80 13 C-58.46245273 -5.84960693 -26.64330638 -6.85463319 0 0 Z " fill="#010101" transform="translate(893,4)"/>
<path d="M0 0 C2.39900064 2.14931563 4.76245351 4.32436239 7.08984375 6.55078125 C5.41853167 10.34337405 2.99342259 13.48840604 0.46484375 16.73828125 C0.02479004 17.30764404 -0.41526367 17.87700684 -0.86865234 18.46362305 C-4.67734635 23.34570125 -8.70505684 28.0050453 -12.91015625 32.55078125 C-16.11461313 31.96815273 -17.7176574 31.06005149 -20.03515625 28.80078125 C-30.30859533 19.59011173 -43.09548396 17.12251537 -56.47265625 17.27734375 C-68.54781396 18.23786766 -78.38452367 23.54706013 -86.66015625 32.23828125 C-96.35718418 44.06727985 -98.74081489 56.66814721 -97.91015625 71.55078125 C-97.52671331 74.67584124 -96.86721252 77.55382789 -95.91015625 80.55078125 C-95.65363281 81.3603125 -95.39710938 82.16984375 -95.1328125 83.00390625 C-90.83936564 95.01818673 -82.79035263 102.38985465 -71.91015625 108.55078125 C-59.82495212 114.09417944 -46.86113232 114.54638808 -34.47265625 109.98828125 C-26.72516795 106.91487431 -20.73354426 102.48167796 -14.91015625 96.55078125 C-11.75768538 97.91405789 -9.97596208 99.35016573 -7.8515625 102.03515625 C-7.30048828 102.72351563 -6.74941406 103.411875 -6.18164062 104.12109375 C-5.61767578 104.84039062 -5.05371094 105.5596875 -4.47265625 106.30078125 C-3.34925033 107.712472 -2.22555661 109.12393377 -1.1015625 110.53515625 C-0.5667627 111.21900391 -0.03196289 111.90285156 0.51904297 112.60742188 C1.52195881 113.84820678 2.56287222 115.05980906 3.64892578 116.22851562 C5.7834058 118.53183706 7.04900738 119.92588984 7.2578125 123.12109375 C5.65926618 126.44649781 3.31440439 128.29678159 0.40234375 130.42578125 C-0.17491455 130.85705322 -0.75217285 131.2883252 -1.34692383 131.73266602 C-10.26099642 138.19347829 -20.15681233 143.05572433 -30.91015625 145.55078125 C-32.09351563 145.85628906 -32.09351563 145.85628906 -33.30078125 146.16796875 C-55.11527436 151.05280923 -78.07520947 146.47012721 -96.97265625 134.92578125 C-115.2101633 123.34123679 -129.76147886 105.94317323 -134.91015625 84.55078125 C-140.05486298 61.17167093 -136.61997388 38.96057209 -123.77685547 18.76904297 C-111.86865428 0.96479304 -92.56001881 -12.40710394 -71.65234375 -17.1953125 C-46.07815848 -21.49723462 -20.27351263 -17.06240593 0 0 Z " fill="#5A2FE9" transform="translate(492.91015625,91.44921875)"/>
<path d="M0 0 C0.82814209 0.00757324 1.65628418 0.01514648 2.50952148 0.02294922 C15.27775769 0.36376721 27.05577967 5.26024367 35.9375 14.5625 C44.42910897 24.80389506 49.46544042 38.01005038 49.0390625 51.3828125 C47.27853403 66.67984874 42.03681807 78.8279626 30.6875 89.4375 C21.5186763 96.2889287 12.22615896 99.01450386 0.875 98.9375 C-0.57640381 98.93000732 -0.57640381 98.93000732 -2.05712891 98.92236328 C-9.65580581 98.73734092 -15.76169267 97.47040744 -22.3125 93.4375 C-23.04210937 92.99148437 -23.77171875 92.54546875 -24.5234375 92.0859375 C-34.89879481 84.97027099 -42.31311155 74.36499187 -45.6875 62.25 C-48.34817015 47.39911659 -46.63559424 33.10074853 -38.3125 20.4375 C-28.75951199 7.70637785 -16.0781107 -0.20826996 0 0 Z " fill="#FCFCFC" transform="translate(670.3125,107.5625)"/>
<path d="M0 0 C10.38048608 7.61870538 17.97645873 18.18026772 20.625 30.875 C22.78732233 46.64193366 20.13215493 61.38963446 10.76171875 74.44921875 C4.39058638 82.43214117 -3.99780503 87.41151924 -13.8515625 89.8671875 C-15.74609817 90.20430775 -15.74609817 90.20430775 -16.75 91.375 C-32.86810204 92.59789083 -45.20835304 89.27870181 -57.7109375 78.71875 C-67.64567954 69.52152156 -71.7254775 57.49215969 -73.0625 44.2890625 C-73.12394688 41.60844258 -73.00949239 39.0429061 -72.75 36.375 C-72.6675 35.48554688 -72.585 34.59609375 -72.5 33.6796875 C-70.89374236 21.93392854 -64.63546175 9.66278724 -55.140625 2.37109375 C-38.45099393 -8.67080305 -17.52313877 -10.65309991 0 0 Z " fill="#FCFCFD" transform="translate(281.75,113.625)"/>
<path d="M0 0 C12.87 0 25.74 0 39 0 C39.02254549 20.71375522 39.04097828 41.42750056 39.05181217 62.14126492 C39.05697552 71.75832495 39.06401895 81.37537684 39.07543945 90.99243164 C39.08538512 99.37151169 39.09185315 107.75058584 39.09408849 116.12967163 C39.0953958 120.56916125 39.09848292 125.00863399 39.10573006 129.44811821 C39.11248842 133.62177273 39.11461734 137.79540333 39.11310768 141.96906281 C39.11338409 143.5054112 39.11539031 145.04176034 39.11920547 146.57810402 C39.12413987 148.66659617 39.12299925 150.75499657 39.12025452 152.8434906 C39.12117631 154.01508948 39.1220981 155.18668837 39.12304783 156.39379025 C39 159 39 159 38 160 C35.27275721 160.10099488 32.57137477 160.13970529 29.84375 160.1328125 C28.61754944 160.13424759 28.61754944 160.13424759 27.36657715 160.13571167 C25.63484622 160.13639345 23.90311276 160.13453929 22.17138672 160.13037109 C19.51133518 160.12502279 16.8514525 160.13031612 14.19140625 160.13671875 C12.51302046 160.13605797 10.83463477 160.1347768 9.15625 160.1328125 C8.35521851 160.13483673 7.55418701 160.13686096 6.72888184 160.13894653 C1.11495079 160.11495079 1.11495079 160.11495079 0 159 C-0.09680041 156.94972261 -0.12186943 154.89605121 -0.12025452 152.8434906 C-0.12110894 152.19335135 -0.12196337 151.5432121 -0.12284368 150.87337166 C-0.12450026 148.6791442 -0.11897425 146.48499198 -0.11352539 144.29077148 C-0.11324353 142.72414146 -0.11340123 141.1575113 -0.1139679 139.59088135 C-0.11425592 135.32453623 -0.10835843 131.05821898 -0.10139394 126.79188037 C-0.09516118 122.33822949 -0.09455666 117.88457803 -0.09336853 113.43092346 C-0.09025498 104.99132557 -0.08204128 96.55174056 -0.07201904 88.11214834 C-0.06085863 78.50650556 -0.05534764 68.90086218 -0.05032361 59.29521453 C-0.03985868 39.53013422 -0.02151291 19.76507159 0 0 Z " fill="#5C33E9" transform="translate(523,77)"/>
<path d="M0 0 C6.75918066 5.55754855 12.7898368 12.3130638 13.8125 21.3125 C14.69411766 31.32767662 11.76003781 38.67189498 5.58203125 46.5234375 C-0.01992285 52.18722332 -8.08270404 55.30880844 -15.9375 55.6875 C-24.80196764 55.47453982 -32.85795387 51.43059136 -39.1875 45.3125 C-44.96271041 38.22941752 -46.8343539 30.28219465 -46.62109375 21.25 C-45.5054655 13.69186985 -41.79510289 7.18169743 -35.9375 2.3125 C-23.9243477 -5.94528032 -12.93401174 -6.84741798 0 0 Z " fill="#5C31E8" transform="translate(1111.1875,187.6875)"/>
<path d="M0 0 C4.92519051 3.82110297 8.91873942 8.64671483 11.00390625 14.5546875 C11.77560492 20.91048352 11.30460074 26.97246032 8.00390625 32.5546875 C3.16528681 38.50439733 -2.23417595 42.87088013 -10.00390625 43.79296875 C-17.15566063 44.04367601 -23.53133696 42.49290527 -29.078125 37.7890625 C-34.24478847 32.26345188 -37.0178925 26.62824466 -37.43359375 19.0546875 C-37.12420994 11.55213021 -33.29045863 6.03123796 -27.90234375 1.03125 C-19.69955164 -5.32255208 -8.65920924 -5.4836495 0 0 Z " fill="#5D33E9" transform="translate(555.99609375,15.4453125)"/>
<path d="M0 0 C0 3 0 3 -1.53125 4.82421875 C-2.1809375 5.43910156 -2.830625 6.05398437 -3.5 6.6875 C-4.1496875 7.31011719 -4.799375 7.93273437 -5.46875 8.57421875 C-5.9740625 9.04472656 -6.479375 9.51523438 -7 10 C-7.66 9.67 -8.32 9.34 -9 9 C-6.31941902 5.42589203 -3.57410797 2.68058098 0 0 Z " fill="#643FDC" transform="translate(200,93)"/>
<path d="M0 0 C0.33 0.99 0.66 1.98 1 3 C-0.9375 5.6875 -0.9375 5.6875 -3 8 C-3.99 7.67 -4.98 7.34 -6 7 C-4.02 4.69 -2.04 2.38 0 0 Z " fill="#6E4BE1" transform="translate(379,98)"/>
<path d="M0 0 C0.66 0 1.32 0 2 0 C0.70700306 2.88437779 -0.65941363 4.87219421 -3 7 C-3.66 6.67 -4.32 6.34 -5 6 C-3.38405168 3.95880212 -1.7143618 1.95927063 0 0 Z " fill="#7150DB" transform="translate(1074,191)"/>
</svg>
